# xmcd
#
# Track frame offsets:
#	150
#	15982
#	27389
#	41071
#	52503
#	64047
#	78752
#	96914
#	111342
#	124795
#	150281
#	162947
#	176044
#	192429
#	216521
#	236030
#	250322
#	261271
#	274262
#	298298
#
# Disc length: 4354 seconds
#
# Revision: 0
# Processed by: cddbd v1.5.2PL0 Copyright (c) Steve Scherf et al.
# Submitted via: EasyCDDAExtractor 4.6.0.1
#
DISCID=1d110014
DTITLE=Southern Company - best of
DYEAR=2007
DGENRE=Country
TTITLE0=Blue Moon of Kentucky
TTITLE1=Great Balls of Fire
TTITLE2=Who'll Stop the Rain
TTITLE3=Callin' Baton Rouge
TTITLE4=Teenager in Love
TTITLE5=Boot Scootin' Boogie
TTITLE6=Chattahoochee
TTITLE7=Lonsome Me
TTITLE8=Cherokee Boogie
TTITLE9=Carolina Mountain Dewe
TTITLE10=Whiskey In The Jar
TTITLE11=Jukebox In My Mind
TTITLE12=Crazy Arms
TTITLE13=Rockin' All Over The World
TTITLE14=I Swear
TTITLE15=Summertime Blues
TTITLE16=Country Boy
TTITLE17=Chantilly Lace
TTITLE18=Ain't Going Down
TTITLE19=Wild Horses
EXTD=
EXTT0=
EXTT1=
EXTT2=
EXTT3=
EXTT4=
EXTT5=
EXTT6=
EXTT7=
EXTT8=
EXTT9=
EXTT10=
EXTT11=
EXTT12=
EXTT13=
EXTT14=
EXTT15=
EXTT16=
EXTT17=
EXTT18=
EXTT19=
PLAYORDER=
